# xmcd
#
# Track frame offsets: 
#        150
#        6040
#        9486
#        16146
#        21004
#        27607
#        32600
#        42474
#        50150
#        53032
#        60085
#        70365
#        72971
#        81061
#        85029
#        88795
#        98463
#        104764
#        108710
#        115934
#        123515
#        129839
#        135318
#        139739
#        149921
#        157244
#        166438
#        174983
#        184157
#        190026
#        195558
#        200672
#        207425
#        218393
#        225569
#        231892
#        240216
#        248263
#        255766
#        261391
#        271616
#        278876
#
# Disc length: 3901 seconds
#
# Revision: 1
# Processed by: cddbd v1.5.2PL0 Copyright (c) Steve Scherf et al.
# Submitted via: ExactAudioCopy v1.3
#
DISCID=400f3b2a
DTITLE=Various Artist - Melhores momentos barretos 97
DYEAR=1997
DGENRE=Country
TTITLE0=Pedro Bento e Ze da Estrada - Hei Barretos
TTITLE1=Cezar e Paulinho - Cowboy moderno
TTITLE2=Tiao Carreiro e Pardinho -Casando fugido
TTITLE3=Milionário e José Rico - Amante da estrada
TTITLE4=Joao Paulo e Daniel - Pedindo bis
TTITLE5=Christian e Ralf - Ladrao de mulher
TTITLE6=Leandro e Leonardo - Chega
TTITLE7=Tiao Carreiro e Pardinho - A majestade o pagode
TTITLE8=Milionário e José Rico - Parana querido
TTITLE9=Tiao Carreiro e Pardinho - Hoje eu nao posso ir
TTITLE10=Milionário e José Rico - O tropeiro (El bandolero)
TTITLE11=Duduca e Dalvan - Pe de cedro
TTITLE12=Milionário e José Rico - Esquina do adeus
TTITLE13=Belmote e Amaral - Visita a Goias
TTITLE14=Leandro e Leonardo - Mexe mexe
TTITLE15=Belmonte e Amaral - Do mundo nada se leva
TTITLE16=Joao Paulo e Daniel - Rosto molhado
TTITLE17=Nalva Aguiar - Coracao redomao
TTITLE18=Milionário e José Rico - Mulher de Campo Grande
TTITLE19=Carlito, Bandui e Voninho - Mulher sempre mulher
TTITLE20=Nalva Aguiar - Cachoeira de lagrimas
TTITLE21=Tiao Carneiro e Pardinho - Pretinho aleijado
TTITLE22=Tiao Carneiro e Pardinho - Vencendo sempre
TTITLE23=Sergio Reis - Vanerao do coroa
TTITLE24=Leandro e Leonardo - Touro de rodeio
TTITLE25=Milionário e José Rico - Pombinha mensageira
TTITLE26=Tiao Carneiro e Pardinho - Boiada cuiabana
TTITLE27=Milionário e José Rico - Eu voce e ela
TTITLE28=Pedro Bento e Ze da Estrada - Segura peao
TTITLE29=Nava Aguiar - Peito de aço
TTITLE30=Tonico e Tinoco - O menino da porteira
TTITLE31=Tiao Carreiro e Pardinho - arreio de prata
TTITLE32=Tiao Carreiro e Pardinho - Chamada a cobrar
TTITLE33=Abel e Caim - Pinha do pinheiro
TTITLE34=Milionário e José Rico - Saldade de minha terra
TTITLE35=Pedro Bento e Ze da Estrada - Galopeira (galopera)
TTITLE36=Tiao Carreiro e Pardinho - Boiadeiro punho de aço
TTITLE37=Tiao Carreiro e Pardinho - Empreitada perigosa
TTITLE38=Piracicabano - Volta
TTITLE39=Tiao Carreiro e Pardinho - Boi soberano
TTITLE40=Jose Rico - Viajante da madrugada
TTITLE41=Goiano e Paranaense and Serio Reis - O grande amigo
EXTD=
EXTT0=
EXTT1=
EXTT2=
EXTT3=
EXTT4=
EXTT5=
EXTT6=
EXTT7=
EXTT8=
EXTT9=
EXTT10=
EXTT11=
EXTT12=
EXTT13=
EXTT14=
EXTT15=
EXTT16=
EXTT17=
EXTT18=
EXTT19=
EXTT20=
EXTT21=
EXTT22=
EXTT23=
EXTT24=
EXTT25=
EXTT26=
EXTT27=
EXTT28=
EXTT29=
EXTT30=
EXTT31=
EXTT32=
EXTT33=
EXTT34=
EXTT35=
EXTT36=
EXTT37=
EXTT38=
EXTT39=
EXTT40=
EXTT41=
PLAYORDER=
